<?xml version="1.0" encoding="UTF-8"?>
<svg width="18px" height="18px" viewBox="0 0 18 18" version="1.1" xmlns="http://www.w3.org/2000/svg" xmlns:xlink="http://www.w3.org/1999/xlink">
    <!-- Generator: Sketch 52.6 (67491) - http://www.bohemiancoding.com/sketch -->
    <title>googleIcon</title>
    <desc>Created with Sketch.</desc>
    <g id="Page-1" stroke="none" stroke-width="1" fill="none" fill-rule="evenodd">
        <g id="Desktop-Copy" transform="translate(-918.000000, -28.000000)">
            <g id="Header">
                <g id="googleIcon" transform="translate(917.000000, 27.000000)">
                    <g id="Icon" transform="translate(0.769231, 0.769231)" fill="#FFFFFF" fill-rule="nonzero">
                        <path d="M1.21976923,4.81976923 C1.21976923,6.31376923 1.71876923,7.39176923 2.70176923,8.02476923 C3.50776923,8.54476923 4.44176923,8.62276923 4.92776923,8.62276923 C5.04576923,8.62276923 5.14076923,8.61676923 5.20676923,8.61276923 C5.20676923,8.61276923 5.05276923,9.61676923 5.79676923,10.6087692 L5.76276923,10.6087692 C4.47376923,10.6087692 0.269769231,10.8777692 0.269769231,14.3357692 C0.269769231,17.8517692 4.13076923,18.0307692 4.90576923,18.0307692 C4.96676923,18.0307692 5.00276923,18.0287692 5.00276923,18.0287692 C5.01076923,18.0287692 5.06576923,18.0307692 5.16076923,18.0307692 C5.65776923,18.0307692 6.94276923,17.9687692 8.13576923,17.3877692 C9.68376923,16.6377692 10.4687692,15.3287692 10.4687692,13.5027692 C10.4687692,11.7387692 9.27276923,10.6887692 8.39976923,9.92076923 C7.86676923,9.45176923 7.40576923,9.04776923 7.40576923,8.65476923 C7.40576923,8.25476923 7.74276923,7.95376923 8.16776923,7.57276923 C8.85676923,6.95776923 9.50676923,6.08076923 9.50676923,4.42276923 C9.50676923,2.96576923 9.31776923,1.98676923 8.15276923,1.36576923 C8.27376923,1.30376923 8.70376923,1.25876923 8.91576923,1.22876923 C9.54676923,1.14276923 10.4697692,1.04476923 10.4697692,0.529769231 L10.4697692,0.430769231 L5.87076923,0.430769231 C5.82476923,0.432769231 1.21976923,0.602769231 1.21976923,4.81976923 Z M8.64376923,13.8327692 C8.73176923,15.2387692 7.52876923,16.2757692 5.72176923,16.4067692 C3.88676923,16.5417692 2.37676923,15.7157692 2.28876923,14.3107692 C2.24576923,13.6347692 2.54276923,12.9747692 3.12376923,12.4477692 C3.71276923,11.9147692 4.52176923,11.5847692 5.40176923,11.5197692 C5.50576923,11.5137692 5.60876923,11.5077692 5.71176923,11.5077692 C7.41076923,11.5087692 8.56076923,12.5067692 8.64376923,13.8327692 Z M7.44276923,3.85676923 C7.89376923,5.44476923 7.21276923,7.10276923 6.12676923,7.40976923 C6.00175441,7.44460534 5.87254653,7.46210224 5.74276923,7.46176923 C4.74876923,7.46176923 3.76376923,6.45576923 3.39776923,5.06876923 C3.19376923,4.29276923 3.21076923,3.61076923 3.44476923,2.95676923 C3.67376923,2.31176923 4.08776923,1.87876923 4.60776923,1.73176923 C4.73276923,1.69676923 4.86176923,1.67876923 4.99276923,1.67876923 C6.19276923,1.67876923 6.96476923,2.17676923 7.44276923,3.85676923 Z M15.2307692,7.23076923 L15.2307692,4.23076923 L13.2307692,4.23076923 L13.2307692,7.23076923 L10.2307692,7.23076923 L10.2307692,9.23076923 L13.2307692,9.23076923 L13.2307692,12.2307692 L15.2307692,12.2307692 L15.2307692,9.23076923 L18.2307692,9.23076923 L18.2307692,7.23076923 L15.2307692,7.23076923 Z" id="Icon-Shape"></path>
                    </g>
                    <rect id="ViewBox" x="0" y="0" width="20" height="20"></rect>
                </g>
            </g>
        </g>
    </g>
</svg>