<?xml version="1.0" encoding="UTF-8"?>
<svg width="36px" height="34px" viewBox="0 0 36 34" version="1.1" xmlns="http://www.w3.org/2000/svg" xmlns:xlink="http://www.w3.org/1999/xlink">
    <!-- Generator: Sketch 52.6 (67491) - http://www.bohemiancoding.com/sketch -->
    <title>googleIcon</title>
    <desc>Created with Sketch.</desc>
    <g id="Page-1" stroke="none" stroke-width="1" fill="none" fill-rule="evenodd">
        <g id="Desktop-Copy" transform="translate(-569.000000, -1746.000000)">
            <g id="Group" transform="translate(422.000000, 1742.000000)">
                <g id="googleIcon" transform="translate(146.000000, 2.000000)">
                    <g id="Icon" transform="translate(1.461538, 1.461538)" fill="#FFFFFF" fill-rule="nonzero">
                        <path d="M2.31756154,9.15756154 C2.31756154,11.9961615 3.26566154,14.0443615 5.13336154,15.2470615 C6.66476154,16.2350615 8.43936154,16.3832615 9.36276154,16.3832615 C9.58696154,16.3832615 9.76746154,16.3718615 9.89286154,16.3642615 C9.89286154,16.3642615 9.60026154,18.2718615 11.0138615,20.1566615 L10.9492615,20.1566615 C8.50016154,20.1566615 0.512561538,20.6677615 0.512561538,27.2379615 C0.512561538,33.9183615 7.84846154,34.2584615 9.32096154,34.2584615 C9.43686154,34.2584615 9.50526154,34.2546615 9.50526154,34.2546615 C9.52046154,34.2546615 9.62496154,34.2584615 9.80546154,34.2584615 C10.7497615,34.2584615 13.1912615,34.1406615 15.4579615,33.0367615 C18.3991615,31.6117615 19.8906615,29.1246615 19.8906615,25.6552615 C19.8906615,22.3036615 17.6182615,20.3086615 15.9595615,18.8494615 C14.9468615,17.9583615 14.0709615,17.1907615 14.0709615,16.4440615 C14.0709615,15.6840615 14.7112615,15.1121615 15.5187615,14.3882615 C16.8278615,13.2197615 18.0628615,11.5534615 18.0628615,8.40326154 C18.0628615,5.63496154 17.7037615,3.77486154 15.4902615,2.59496154 C15.7201615,2.47716154 16.5371615,2.39166154 16.9399615,2.33466154 C18.1388615,2.17126154 19.8925615,1.98506154 19.8925615,1.00656154 L19.8925615,0.818461538 L11.1544615,0.818461538 C11.0670615,0.822261538 2.31756154,1.14526154 2.31756154,9.15756154 Z M16.4231615,26.2822615 C16.5903615,28.9536615 14.3046615,30.9239615 10.8713615,31.1728615 C7.38486154,31.4293615 4.51586154,29.8599615 4.34866154,27.1904615 C4.26696154,25.9060615 4.83126154,24.6520615 5.93516154,23.6507615 C7.05426154,22.6380615 8.59136154,22.0110615 10.2633615,21.8875615 C10.4609615,21.8761615 10.6566615,21.8647615 10.8523615,21.8647615 C14.0804615,21.8666615 16.2654615,23.7628615 16.4231615,26.2822615 Z M14.1412615,7.32786154 C14.9981615,10.3450615 13.7042615,13.4952615 11.6408615,14.0785615 C11.4033334,14.1447502 11.1578384,14.1779943 10.9112615,14.1773615 C9.02266154,14.1773615 7.15116154,12.2659615 6.45576154,9.63066154 C6.06816154,8.15626154 6.10046154,6.86046154 6.54506154,5.61786154 C6.98016154,4.39236154 7.76676154,3.56966154 8.75476154,3.29036154 C8.99226154,3.22386154 9.23736154,3.18966154 9.48626154,3.18966154 C11.7662615,3.18966154 13.2330615,4.13586154 14.1412615,7.32786154 Z M28.9384615,13.7384615 L28.9384615,8.03846154 L25.1384615,8.03846154 L25.1384615,13.7384615 L19.4384615,13.7384615 L19.4384615,17.5384615 L25.1384615,17.5384615 L25.1384615,23.2384615 L28.9384615,23.2384615 L28.9384615,17.5384615 L34.6384615,17.5384615 L34.6384615,13.7384615 L28.9384615,13.7384615 Z" id="Icon-Shape"></path>
                    </g>
                    <rect id="ViewBox" x="0" y="0" width="38" height="38"></rect>
                </g>
            </g>
        </g>
    </g>
</svg>