<?xml version="1.0" encoding="UTF-8"?>
<svg width="20px" height="16px" viewBox="0 0 20 16" version="1.1" xmlns="http://www.w3.org/2000/svg" xmlns:xlink="http://www.w3.org/1999/xlink">
    <!-- Generator: Sketch 52.6 (67491) - http://www.bohemiancoding.com/sketch -->
    <title>Icon Path</title>
    <desc>Created with Sketch.</desc>
    <g id="Page-1" stroke="none" stroke-width="1" fill="none" fill-rule="evenodd">
        <g id="Desktop-Copy" transform="translate(-972.000000, -29.000000)" fill="#FFFFFF">
            <g id="Header">
                <g id="twitterIcon" transform="translate(34.000000, 22.000000)">
                    <g id="Icon">
                        <path d="M957.984607,8.89335465 C957.428543,9.70840093 956.746342,10.4031888 955.938005,10.9777183 C955.945985,11.1318042 955.949976,11.3059607 955.949976,11.5001878 C955.949976,12.579354 955.790311,13.6598255 955.470981,14.7416024 C955.151652,15.8233899 954.663871,16.8588505 954.00764,17.847984 C953.351408,18.8371175 952.569716,19.7134039 951.662563,20.4768432 C950.75541,21.2402824 949.664969,21.849007 948.391241,22.303017 C947.117513,22.757027 945.75242,22.984032 944.295961,22.984032 C942.022914,22.984032 939.929662,22.3793407 938.016204,21.169958 C938.35582,21.2072008 938.681541,21.2258222 938.993366,21.2258222 C940.892311,21.2258222 942.588375,20.6494545 944.081557,19.4967193 C943.196161,19.4807246 942.403222,19.2121452 941.702741,18.690981 C941.00226,18.1698275 940.520205,17.5038908 940.256577,16.6931708 C940.517156,16.7420819 940.774339,16.7665375 941.028127,16.7665375 C941.393436,16.7665375 941.752895,16.7195871 942.106504,16.6256863 C941.161622,16.4392061 940.377762,15.9754565 939.754923,15.2344376 C939.132106,14.4934292 938.820697,13.6381618 938.820697,12.6686354 L938.820697,12.6186693 C939.40067,12.9351102 940.019303,13.1034326 940.676594,13.1236364 C940.116853,12.7559187 939.673063,12.2764036 939.345223,11.6850909 C939.017361,11.0937782 938.853431,10.4538741 938.853431,9.76537862 C938.853431,9.03924609 939.038081,8.36307959 939.40738,7.73687912 C940.434923,8.97944456 941.680005,9.97254212 943.142628,10.7161718 C944.605272,11.4598122 946.174409,11.8728072 947.850041,11.9551568 C947.778573,11.6616583 947.742774,11.355378 947.742644,11.0363157 C947.742644,9.92227239 948.14272,8.97104229 948.942871,8.18262537 C949.743033,7.39420846 950.708381,7 951.838913,7 C953.022541,7 954.019524,7.42470063 954.829862,8.2741019 C955.755712,8.09338661 956.622612,7.76651881 957.43056,7.2934985 C957.119286,8.25882651 956.519486,9.00351116 955.63116,9.52755245 C956.447618,9.43194672 957.23209,9.22054745 957.984574,8.89335465 L957.984607,8.89335465 Z" id="Icon-Path"></path>
                    </g>
                </g>
            </g>
        </g>
    </g>
</svg>