<?xml version="1.0" encoding="UTF-8"?>
<svg width="20px" height="19px" viewBox="0 0 20 19" version="1.1" xmlns="http://www.w3.org/2000/svg" xmlns:xlink="http://www.w3.org/1999/xlink">
    <!-- Generator: Sketch 52.6 (67491) - http://www.bohemiancoding.com/sketch -->
    <title>linkedinIcon</title>
    <desc>Created with Sketch.</desc>
    <g id="Page-1" stroke="none" stroke-width="1" fill="none" fill-rule="evenodd">
        <g id="Desktop-Copy" transform="translate(-862.000000, -26.000000)">
            <g id="Header">
                <g id="linkedinIcon" transform="translate(862.000000, 26.000000)">
                    <g id="Icon" fill="#FFFFFF" fill-rule="nonzero">
                        <path d="M4.55124046,19 L4.55124046,6.19352547 L0.271545802,6.19352547 L0.271545802,19 L4.55124046,19 Z M2.41194656,4.44396903 C3.90435115,4.44396903 4.83330153,3.46058142 4.83330153,2.23167433 C4.80549618,0.975054945 3.9044084,0.018962038 2.44026718,0.018962038 C0.976354962,0.018962038 0.0190458015,0.975073926 0.0190458015,2.23167433 C0.0190458015,3.46063836 0.947767176,4.44396903 2.38400763,4.44396903 L2.41181298,4.44396903 L2.41194656,4.44396903 Z M6.92003817,19 L11.1997328,19 L11.1997328,11.8482368 C11.1997328,11.4654845 11.2275382,11.0831309 11.3405534,10.8095195 C11.6499427,10.0447932 12.3541221,9.25275325 13.536355,9.25275325 C15.085,9.25275325 15.704542,10.4271469 15.704542,12.1487253 L15.704542,18.9999051 L19.9839695,19 L19.9839695,11.6567942 C19.9839695,7.72314885 17.8725954,5.89286613 15.056813,5.89286613 C12.7480916,5.89286613 11.7344084,7.1764006 11.1712595,8.05060939 L11.1998282,8.05060939 L11.1998282,6.19325974 L6.92013359,6.19325974 C6.97629771,7.39494805 6.92013359,18.9997343 6.92013359,18.9997343 L6.92003817,19 Z" id="Icon-Shape"></path>
                    </g>
                    <rect id="ViewBox" x="0" y="0" width="20" height="19"></rect>
                </g>
            </g>
        </g>
    </g>
</svg>