<?xml version="1.0" encoding="UTF-8"?>
<svg width="38px" height="36px" viewBox="0 0 38 36" version="1.1" xmlns="http://www.w3.org/2000/svg" xmlns:xlink="http://www.w3.org/1999/xlink">
    <!-- Generator: Sketch 52.6 (67491) - http://www.bohemiancoding.com/sketch -->
    <title>linkedinIcon</title>
    <desc>Created with Sketch.</desc>
    <g id="Page-1" stroke="none" stroke-width="1" fill="none" fill-rule="evenodd">
        <g id="Desktop-Copy" transform="translate(-422.000000, -1742.000000)">
            <g id="Group" transform="translate(422.000000, 1742.000000)">
                <g id="linkedinIcon">
                    <g id="Icon" fill="#FFFFFF" fill-rule="nonzero">
                        <path d="M8.64735687,36 L8.64735687,11.7351009 L0.515937023,11.7351009 L0.515937023,36 L8.64735687,36 Z M4.58269847,8.42015185 C7.41826718,8.42015185 9.1832729,6.55689111 9.1832729,4.22843556 C9.13044275,1.84747253 7.41837595,0.0359280719 4.63650763,0.0359280719 C1.85507443,0.0359280719 0.0361870229,1.84750849 0.0361870229,4.22843556 C0.0361870229,6.556999 1.80075763,8.42015185 4.5296145,8.42015185 L4.58244466,8.42015185 L4.58269847,8.42015185 Z M13.1480725,36 L21.2794924,36 L21.2794924,22.4492907 C21.2794924,21.7240759 21.3323225,20.9996164 21.5470515,20.4811948 C22.1348912,19.0322398 23.4728321,17.5315325 25.7190744,17.5315325 C28.6615,17.5315325 29.8386298,19.7566993 29.8386298,23.0186374 L29.8386298,35.9998202 L37.969542,36 L37.969542,22.0865574 C37.969542,14.6333347 33.9579313,11.1654306 28.6079447,11.1654306 C24.221374,11.1654306 22.295376,13.5973906 21.2253931,15.2537862 L21.2796737,15.2537862 L21.2796737,11.7345974 L13.1482538,11.7345974 C13.2549656,14.0114805 13.1482538,35.9994965 13.1482538,35.9994965 L13.1480725,36 Z" id="Icon-Shape"></path>
                    </g>
                    <rect id="ViewBox" x="0" y="0" width="38" height="36"></rect>
                </g>
            </g>
        </g>
    </g>
</svg>