<?xml version="1.0" encoding="UTF-8"?>
<svg width="38px" height="31px" viewBox="0 0 38 31" version="1.1" xmlns="http://www.w3.org/2000/svg" xmlns:xlink="http://www.w3.org/1999/xlink">
    <!-- Generator: Sketch 52.6 (67491) - http://www.bohemiancoding.com/sketch -->
    <title>twitterIcon</title>
    <desc>Created with Sketch.</desc>
    <g id="Page-1" stroke="none" stroke-width="1" fill="none" fill-rule="evenodd">
        <g id="Desktop-Copy" transform="translate(-495.000000, -1748.000000)">
            <g id="Group" transform="translate(422.000000, 1742.000000)">
                <g id="twitterIcon" transform="translate(73.000000, 6.000000)">
                    <g id="Icon" fill="#FFFFFF">
                        <path d="M37.9707526,3.59737383 C36.9142314,5.14596177 35.6180503,6.46605874 34.0822092,7.55766474 C34.0973723,7.85042797 34.1049538,8.18132534 34.1049538,8.55035684 C34.1049538,10.6007726 33.8015907,12.6536685 33.1948646,14.7090446 C32.5881384,16.7644409 31.6613555,18.7318159 30.4145158,20.6111696 C29.1676761,22.4905233 27.6824607,24.1554675 25.9588694,25.606002 C24.2352782,27.0565365 22.1634409,28.2131133 19.7433577,29.0757323 C17.3232744,29.9383512 14.7295972,30.3696607 11.962326,30.3696607 C7.64353717,30.3696607 3.66635793,29.2207473 0.0307883212,26.9229203 C0.676058935,26.9936815 1.29492782,27.0290621 1.88739497,27.0290621 C5.49539173,27.0290621 8.71791295,25.9339636 11.5549586,23.7437666 C9.87270614,23.7133768 8.36612274,23.2030759 7.03520843,22.2128639 C5.70429413,21.2226723 4.78839038,19.9573925 4.28749716,18.4170246 C4.78259638,18.5099556 5.27124412,18.5564212 5.75344039,18.5564212 C6.44752852,18.5564212 7.13050122,18.4672155 7.80235848,18.288804 C6.00708191,17.9344916 4.51774696,17.0533674 3.33435361,15.6454314 C2.15100135,14.2375156 1.55932522,12.6125075 1.55932522,10.7704072 L1.55932522,10.6754717 C2.66127386,11.2767094 3.83667478,11.5965219 5.08552798,11.6349091 C4.02202109,10.9362456 3.17881968,10.0251668 2.55592376,8.90167273 C1.93298675,7.77817862 1.62151825,6.56236084 1.62151825,5.25421938 C1.62151825,3.87456757 1.97235307,2.58985122 2.67402271,1.40007033 C4.62635361,3.76094466 6.99201027,5.64783004 9.7709927,7.06072647 C12.5500162,8.47364316 15.5313777,9.25833367 18.715077,9.414798 C18.5792879,8.85715085 18.5112701,8.27521812 18.5110235,7.6689998 C18.5110235,5.55231755 19.2711673,3.74498035 20.791455,2.24698821 C22.3117632,0.748996071 24.1459232,0 26.2939351,0 C28.5428283,0 30.437096,0.806931202 31.976738,2.42079361 C33.7358535,2.07743457 35.3829619,1.45638575 36.9180633,0.557647153 C36.326644,2.39177036 35.1870241,3.8066712 33.4992036,4.80234965 C35.0504747,4.62069877 36.5409705,4.21904016 37.970691,3.59737383 L37.9707526,3.59737383 Z" id="Icon-Path"></path>
                    </g>
                    <rect id="ViewBox" x="0" y="0" width="38" height="30.4"></rect>
                </g>
            </g>
        </g>
    </g>
</svg>